<svg width="24" height="24" viewBox="0 0 24 24" fill="none" xmlns="http://www.w3.org/2000/svg">
<path d="M14 5V3M10 5V3M14 21V19M10 21V19M21 14H19M21 10H19M5 14H3M5 10H3M7.4 5H16.6C17.2365 5 17.847 5.25286 18.2971 5.70294C18.7471 6.15303 19 6.76348 19 7.4V16.6C19 17.2365 18.7471 17.847 18.2971 18.2971C17.847 18.7471 17.2365 19 16.6 19H7.4C6.76348 19 6.15303 18.7471 5.70294 18.2971C5.25286 17.847 5 17.2365 5 16.6V7.4C5 6.76348 5.25286 6.15303 5.70294 5.70294C6.15303 5.25286 6.76348 5 7.4 5ZM10.6 9H13.4C13.8243 9 14.2313 9.16857 14.5314 9.46863C14.8314 9.76869 15 10.1757 15 10.6V13.4C15 13.8243 14.8314 14.2313 14.5314 14.5314C14.2313 14.8314 13.8243 15 13.4 15H10.6C10.3899 15 10.1818 14.9586 9.98771 14.8782C9.79359 14.7978 9.6172 14.6799 9.46863 14.5314C9.32006 14.3828 9.2022 14.2064 9.12179 14.0123C9.04139 13.8182 9 13.6101 9 13.4V10.6C9 10.3899 9.04139 10.1818 9.12179 9.98771C9.2022 9.79359 9.32006 9.6172 9.46863 9.46863C9.6172 9.32006 9.79359 9.2022 9.98771 9.12179C10.1818 9.04139 10.3899 9 10.6 9Z" stroke="#5AD8A6" stroke-width="2" stroke-miterlimit="10" stroke-linecap="round" stroke-linejoin="round"/>
</svg>
